<svg width="17" height="17" viewBox="0 0 300 300" fill="none" xmlns="http://www.w3.org/2000/svg">
<g clip-path="url(#clip0_114_159)">
<path d="M0 0H17V17H0V0Z" fill="#1E1E1E"/>
<path d="M15.6086 12.9456C15.4842 12.1699 14.9784 11.5187 13.4804 10.9111C12.9601 10.6719 12.3799 10.5006 12.207 10.1063C12.1456 9.87684 12.1375 9.74756 12.1763 9.60859C12.2878 9.15773 12.8259 9.01714 13.2526 9.14642C13.5273 9.23853 13.7874 9.45024 13.9442 9.78796C14.6778 9.31288 14.6762 9.3161 15.1885 8.98969C15.001 8.69881 14.9008 8.56467 14.778 8.44026C14.3369 7.94739 13.7357 7.69368 12.7742 7.71307C12.6078 7.73408 12.4397 7.75669 12.2733 7.77771C11.7933 7.89891 11.336 8.151 11.0678 8.48874C10.263 9.40176 10.4925 10.9999 11.4718 11.6577C12.4365 12.3816 13.8537 12.5464 14.0347 13.2235C14.2108 14.0525 13.4255 14.3208 12.6449 14.2254C12.0697 14.1058 11.7497 13.8134 11.4039 13.2817C10.7672 13.6501 10.7672 13.6501 10.1127 14.0267C10.2679 14.366 10.4311 14.5195 10.6913 14.8136C11.9226 16.0628 15.0043 16.0014 15.5569 14.1107C15.5795 14.046 15.7282 13.613 15.6086 12.9456ZM9.24171 7.81324H7.6516C7.6516 9.18682 7.64515 10.5507 7.64515 11.9243C7.64515 12.7985 7.6904 13.6 7.54819 13.8457C7.31549 14.3288 6.71274 14.269 6.43802 14.1753C6.15846 14.0379 6.01625 13.8424 5.85143 13.5661C5.80618 13.4869 5.77224 13.4255 5.76092 13.4207C5.32947 13.6841 4.8996 13.9491 4.46814 14.2125C4.68308 14.6536 4.99979 15.0366 5.4054 15.2855C6.01139 15.6491 6.82584 15.7606 7.67747 15.565C8.23175 15.4034 8.71006 15.0689 8.96054 14.5599C9.32251 13.8925 9.24495 13.0845 9.24171 12.1909C9.24979 10.7333 9.24171 9.2757 9.24171 7.81324Z" fill="white"/>
</g>
<defs>
<clipPath id="clip0_114_159">
<rect width="17" height="17" fill="white"/>
</clipPath>
</defs>
</svg>
