<svg width="17" height="17" viewBox="0 0 17 17" fill="none" xmlns="http://www.w3.org/2000/svg">
<path d="M8.49689 1.59375C8.30298 1.59375 8.10912 1.64131 7.94177 1.73694L2.677 4.77606C2.337 4.97262 2.125 5.34479 2.125 5.73792V11.2517C2.125 11.6501 2.337 12.017 2.677 12.2136L4.05908 13.0104C4.72846 13.3398 4.96715 13.3394 5.26996 13.3394C6.2634 13.3394 6.83154 12.7391 6.83154 11.6979V6.00873C6.83154 5.92373 6.76298 5.85413 6.67798 5.85413H6.01392C5.9236 5.85413 5.85931 5.92373 5.85931 6.00873V11.6927C5.85931 12.1602 5.37646 12.6169 4.59552 12.2291L3.15015 11.3949C3.09702 11.3683 3.06506 11.3101 3.06506 11.2517V5.7431C3.06506 5.67935 3.09702 5.62556 3.15015 5.59369L8.41492 2.5556C8.46273 2.52373 8.52677 2.52373 8.5799 2.5556L13.8447 5.59369C13.8978 5.62556 13.9297 5.67948 13.9297 5.73792V11.2517C13.9297 11.3101 13.8977 11.3683 13.8499 11.3949L8.5799 14.4392C8.53208 14.4658 8.46273 14.4658 8.41492 14.4392L7.05981 13.6371C7.02263 13.6106 6.97042 13.6055 6.93323 13.6268C6.55604 13.8393 6.48698 13.8657 6.13635 13.9879C6.05135 14.0144 5.91846 14.0674 6.18408 14.2161L7.94177 15.2579C8.11177 15.3535 8.30356 15.4062 8.49481 15.4062C8.69137 15.4062 8.882 15.3535 9.052 15.2579L14.323 12.2136C14.663 12.017 14.875 11.6501 14.875 11.2517V5.7431C14.875 5.34467 14.663 4.97781 14.323 4.78125L9.052 1.73694C8.88466 1.64131 8.69079 1.59375 8.49689 1.59375ZM9.91321 5.84686C8.40977 5.84686 7.51221 6.48395 7.51221 7.54645C7.51221 8.69926 8.40388 9.01751 9.84888 9.16095C11.5754 9.33095 11.7083 9.5867 11.7083 9.9267C11.7083 10.5111 11.2362 10.7609 10.1259 10.7609C8.72873 10.7609 8.4204 10.4098 8.31946 9.71918C8.30883 9.6448 8.24546 9.59155 8.17108 9.59155H7.48523C7.40023 9.59155 7.33685 9.66128 7.33685 9.74097C7.33685 10.6282 7.82029 11.6844 10.1259 11.6844C11.794 11.6844 12.75 11.0265 12.75 9.87897C12.75 8.74209 11.9796 8.4387 10.3646 8.22089C8.723 8.00839 8.55811 7.89678 8.55811 7.51428C8.55811 7.19553 8.70196 6.77655 9.91321 6.77655C10.9916 6.77655 11.3952 7.00955 11.5599 7.73737C11.5758 7.80643 11.6339 7.8598 11.7083 7.8598H12.3941C12.4366 7.8598 12.4733 7.83876 12.5051 7.80688C12.5317 7.78032 12.5478 7.73745 12.5425 7.68964C12.4362 6.43589 11.6026 5.84686 9.91321 5.84686Z" fill="#1A1A1A"/>
</svg>
