<svg width="28" height="17" viewBox="0 0 28 17" fill="none" xmlns="http://www.w3.org/2000/svg">
<g clip-path="url(#clip0_114_162)">
<mask id="mask0_114_162" style="mask-type:luminance" maskUnits="userSpaceOnUse" x="0" y="0" width="28" height="17">
<path d="M0 0H28V16.6909H0V0Z" fill="white"/>
</mask>
<g mask="url(#mask0_114_162)">
<path fill-rule="evenodd" clip-rule="evenodd" d="M14 0C10.2667 0 7.93333 1.85455 7 5.56364C8.4 3.70909 10.0333 3.01364 11.9 3.47727C12.965 3.74155 13.7262 4.50964 14.5688 5.35912C15.9413 6.74333 17.5301 8.34546 21 8.34546C24.7333 8.34546 27.0667 6.49091 28 2.78182C26.6 4.63636 24.9667 5.33182 23.1 4.86818C22.035 4.60391 21.2738 3.83582 20.4312 2.98633C19.0587 1.60212 17.4699 0 14 0ZM7 8.34546C3.26667 8.34546 0.933333 10.2 0 13.9091C1.4 12.0545 3.03333 11.3591 4.9 11.8227C5.96504 12.0875 6.72622 12.8551 7.56881 13.7046C8.94133 15.0888 10.5301 16.6909 14 16.6909C17.7333 16.6909 20.0667 14.8364 21 11.1273C19.6 12.9818 17.9667 13.6773 16.1 13.2136C15.035 12.9494 14.2738 12.1813 13.4312 11.3318C12.0587 9.94758 10.4699 8.34546 7 8.34546Z" fill="#1E1E1E"/>
</g>
</g>
<defs>
<clipPath id="clip0_114_162">
<rect width="28" height="17" fill="white"/>
</clipPath>
</defs>
</svg>
