<svg width="19" height="17" viewBox="0 0 19 17" fill="none" xmlns="http://www.w3.org/2000/svg">
<g clip-path="url(#clip0_86_84)">
<path d="M9.41309 6.67383C10.4125 6.67383 11.2227 7.484 11.2227 8.4834C11.2227 9.4828 10.4125 10.293 9.41309 10.293C8.41369 10.293 7.60352 9.4828 7.60352 8.4834C7.60352 7.484 8.41369 6.67383 9.41309 6.67383Z" fill="black"/>
<path d="M0.00133324 8.49981C0.00133324 7.07916 1.31691 5.83317 3.41157 5.01318C3.38358 4.82852 3.35825 4.64585 3.34026 4.46652C3.13366 2.42521 3.6255 0.951888 4.72448 0.317227C5.95408 -0.392766 7.69086 0.122563 9.44696 1.52788C11.2031 0.122563 12.9398 -0.392766 14.1694 0.317227C15.2684 0.951888 15.7603 2.42521 15.5537 4.46652C15.5357 4.64585 15.511 4.82918 15.4823 5.01451C15.657 5.08118 15.8282 5.15185 15.9928 5.22585C17.8629 6.0665 18.8926 7.23049 18.8926 8.49981C18.8926 9.92047 17.577 11.1665 15.4823 11.9864C15.511 12.1711 15.5357 12.3538 15.5537 12.5331C15.7603 14.5744 15.2684 16.0477 14.1694 16.6824C13.7916 16.8967 13.3634 17.0062 12.9292 16.9997C11.8882 16.9997 10.6726 16.4517 9.44696 15.4717C8.22202 16.4517 7.00574 16.9997 5.96341 16.9997C5.52914 17.0061 5.10102 16.8966 4.72314 16.6824C3.62417 16.0477 3.13232 14.5744 3.33892 12.5331C3.35692 12.3538 3.38224 12.1711 3.41023 11.9864C1.31558 11.1678 0 9.9198 0 8.49981M5.97141 0.899888C5.69217 0.893151 5.41617 0.960794 5.17167 1.09589C4.40858 1.53655 4.06602 2.73187 4.23264 4.37519C4.24397 4.48719 4.25729 4.60052 4.27329 4.71452C5.14426 4.45214 6.03614 4.26501 6.9391 4.15519C7.48647 3.42736 8.09517 2.74777 8.75851 2.12388C7.71685 1.31855 6.73916 0.899888 5.97208 0.899888M6.32996 10.2998C6.66702 10.885 7.03406 11.4524 7.42961 11.9998C8.10007 12.0687 8.77363 12.1029 9.44762 12.1024C10.1214 12.1029 10.7947 12.0686 11.465 11.9998C11.8595 11.4524 12.2254 10.885 12.5613 10.2998C12.8983 9.71621 13.2047 9.11539 13.479 8.49981C13.2047 7.88423 12.8983 7.28342 12.5613 6.69983C12.2259 6.11699 11.8611 5.5516 11.4683 5.00585C10.7968 4.93525 10.1221 4.90009 9.44696 4.90051C8.77319 4.90011 8.09985 4.93438 7.42961 5.00318C7.03544 5.54977 6.66931 6.11605 6.33263 6.69983C5.99584 7.28356 5.68953 7.88436 5.41492 8.49981C5.68953 9.11526 5.99584 9.71607 6.33263 10.2998M4.9564 9.63314C4.74489 10.2101 4.57124 10.8002 4.43657 11.3998C5.02099 11.582 5.61675 11.7257 6.22 11.8298C5.99074 11.484 5.76859 11.1242 5.55354 10.7505C5.34095 10.3811 5.14168 10.0085 4.95374 9.6358M10.7125 12.9618C10.298 12.9871 9.87482 13.0018 9.44629 13.0018C9.01776 13.0018 8.5919 12.9871 8.1767 12.9618C8.57037 13.4334 8.99447 13.8788 9.44629 14.2951C9.89713 13.8789 10.3201 13.4335 10.7125 12.9618ZM12.6732 11.8284C13.2767 11.7248 13.8727 11.5816 14.4573 11.3998C14.3232 10.8012 14.1502 10.2119 13.9395 9.6358C13.7542 10.0085 13.5556 10.3811 13.3397 10.7505C13.1238 11.1198 12.9005 11.4838 12.6732 11.8298M13.9395 7.36316C14.1495 6.78917 14.322 6.20217 14.456 5.60584C13.8728 5.42381 13.2784 5.27973 12.6766 5.17451C12.9045 5.51918 13.1278 5.87651 13.343 6.24917C13.5583 6.62183 13.7549 6.98983 13.9428 7.36316M8.1807 4.03719C8.59523 4.01186 9.01843 3.99719 9.45029 3.99719C9.87859 3.99719 10.3007 4.01052 10.7165 4.03719C10.3241 3.56547 9.90113 3.12007 9.45029 2.70387C8.9983 3.11996 8.57418 3.56536 8.1807 4.03719ZM5.55488 6.24917C5.77081 5.87495 5.99407 5.51495 6.22466 5.16918C5.61982 5.27329 5.0225 5.41715 4.43657 5.59984C4.57101 6.19838 4.74398 6.7876 4.9544 7.36382C5.13968 6.99116 5.33895 6.6185 5.55421 6.24984M14.6586 4.37585C14.8272 2.7332 14.4827 1.53722 13.7202 1.09655C13.4757 0.96167 13.1997 0.894042 12.9205 0.900555C12.1534 0.900555 11.1757 1.31922 10.1341 2.12454C10.7979 2.74888 11.407 3.42891 11.9548 4.15719C12.8575 4.26753 13.7493 4.45397 14.6206 4.71452C14.6359 4.60052 14.6499 4.48785 14.6606 4.37585M15.6236 6.0465C15.521 6.00206 15.4164 5.95762 15.3097 5.91317C15.1001 6.79786 14.8158 7.66318 14.46 8.49981C14.8165 9.33809 15.101 10.2052 15.3104 11.0918C17.0085 10.3951 17.9929 9.4298 17.9929 8.49981C17.9929 7.61849 17.1265 6.7245 15.6236 6.0465ZM13.7202 15.9031C14.4827 15.4624 14.8272 14.2664 14.6586 12.6238C14.6479 12.5118 14.634 12.3991 14.6186 12.2844C13.7476 12.5467 12.8558 12.7339 11.9528 12.8438C11.4053 13.5719 10.7966 14.2519 10.1334 14.8764C11.5856 15.9984 12.9125 16.3684 13.7182 15.9031M4.2333 12.6238C4.06669 14.2671 4.40925 15.4624 5.17233 15.9031C5.97741 16.3697 7.30498 15.9984 8.75651 14.8764C8.09355 14.2519 7.48509 13.5719 6.93776 12.8438C6.0348 12.7339 5.14293 12.5468 4.27196 12.2844C4.25596 12.3991 4.24263 12.5118 4.2313 12.6238M3.57951 11.0905C3.7895 10.2044 4.07421 9.33775 4.43057 8.49981C4.07436 7.66142 3.78988 6.79433 3.58018 5.90784C1.88539 6.6045 0.898376 7.56982 0.898376 8.49981C0.898376 9.4298 1.88273 10.3951 3.58085 11.0918" fill="black"/>
</g>
<defs>
<clipPath id="clip0_86_84">
<rect width="18.8926" height="17" fill="white" transform="matrix(-1 0 0 1 18.8926 0)"/>
</clipPath>
</defs>
</svg>
