<svg xmlns="http://www.w3.org/2000/svg" xmlns:xlink="http://www.w3.org/1999/xlink" style="display:none">
<!-- JavaScript -->
 <symbol id="icon-javascript" viewBox="0 0 24 24">
      <g clip-path="url(#clip0_114_159)">
      <path d="M0 0H17V17H0V0Z" fill="#1E1E1E"/>
      <path d="M15.6086 12.9456C15.4842 12.1699 14.9784 11.5187 13.4804 10.9111C12.9601 10.6719 12.3799 10.5006 12.207 10.1063C12.1456 9.87684 12.1375 9.74756 12.1763 9.60859C12.2878 9.15773 12.8259 9.01714 13.2526 9.14642C13.5273 9.23853 13.7874 9.45024 13.9442 9.78796C14.6778 9.31288 14.6762 9.3161 15.1885 8.98969C15.001 8.69881 14.9008 8.56467 14.778 8.44026C14.3369 7.94739 13.7357 7.69368 12.7742 7.71307C12.6078 7.73408 12.4397 7.75669 12.2733 7.77771C11.7933 7.89891 11.336 8.151 11.0678 8.48874C10.263 9.40176 10.4925 10.9999 11.4718 11.6577C12.4365 12.3816 13.8537 12.5464 14.0347 13.2235C14.2108 14.0525 13.4255 14.3208 12.6449 14.2254C12.0697 14.1058 11.7497 13.8134 11.4039 13.2817C10.7672 13.6501 10.7672 13.6501 10.1127 14.0267C10.2679 14.366 10.4311 14.5195 10.6913 14.8136C11.9226 16.0628 15.0043 16.0014 15.5569 14.1107C15.5795 14.046 15.7282 13.613 15.6086 12.9456ZM9.24171 7.81324H7.6516C7.6516 9.18682 7.64515 10.5507 7.64515 11.9243C7.64515 12.7985 7.6904 13.6 7.54819 13.8457C7.31549 14.3288 6.71274 14.269 6.43802 14.1753C6.15846 14.0379 6.01625 13.8424 5.85143 13.5661C5.80618 13.4869 5.77224 13.4255 5.76092 13.4207C5.32947 13.6841 4.8996 13.9491 4.46814 14.2125C4.68308 14.6536 4.99979 15.0366 5.4054 15.2855C6.01139 15.6491 6.82584 15.7606 7.67747 15.565C8.23175 15.4034 8.71006 15.0689 8.96054 14.5599C9.32251 13.8925 9.24495 13.0845 9.24171 12.1909C9.24979 10.7333 9.24171 9.2757 9.24171 7.81324Z" fill="white"/>
      </g>
      <defs>
      <clipPath id="clip0_114_159">
    <rect width="17" height="17" fill="white"/>
    </clipPath>
    </defs>
</symbol>

<!-- TypeScript -->
<symbol id="icon-typescript" width="17" height="17" viewBox="0 0 17 17" fill="none" xmlns="http://www.w3.org/2000/svg">
<g clip-path="url(#clip0_104_48)">
<path d="M1.32812 0H15.6719C16.4054 0 17 0.594602 17 1.32812V15.6719C17 16.4054 16.4054 17 15.6719 17H1.32812C0.594602 17 0 16.4054 0 15.6719V1.32812C0 0.594602 0.594602 0 1.32812 0Z" fill="black"/>
<path d="M9.99534 13.3128V15.1469C10.2936 15.2998 10.6464 15.4144 11.0537 15.4909C11.461 15.5673 11.8902 15.6055 12.3415 15.6055C12.7813 15.6055 13.1991 15.5634 13.5949 15.4794C13.9907 15.3953 14.3378 15.2568 14.636 15.0639C14.9343 14.8709 15.1704 14.6187 15.3445 14.3072C15.5185 13.9958 15.6055 13.6109 15.6055 13.1524C15.6055 12.8199 15.5557 12.5285 15.4563 12.2782C15.358 12.0297 15.2118 11.8028 15.0261 11.6105C14.8387 11.4156 14.614 11.2409 14.3521 11.0861C14.0901 10.9313 13.7947 10.7852 13.4658 10.6476C13.2249 10.5482 13.0089 10.4518 12.8176 10.3582C12.6264 10.2645 12.4639 10.1691 12.33 10.0716C12.1962 9.97415 12.0929 9.87096 12.0203 9.76205C11.9476 9.65314 11.9113 9.52996 11.9113 9.39237C11.9113 9.26626 11.9438 9.15264 12.0088 9.05137C12.0738 8.9501 12.1656 8.86318 12.2842 8.79059C12.4027 8.71795 12.548 8.66163 12.7201 8.62146C12.8922 8.58135 13.0834 8.56129 13.2937 8.56129C13.4467 8.56129 13.6083 8.57278 13.7784 8.59569C13.9486 8.6186 14.1198 8.65393 14.2919 8.70174C14.4635 8.74931 14.6312 8.80966 14.7938 8.8823C14.9514 8.95215 15.1022 9.03656 15.2441 9.13445V7.4207C14.9649 7.31372 14.6599 7.23443 14.3291 7.18283C13.9984 7.13123 13.6188 7.10547 13.1905 7.10547C12.7545 7.10547 12.3415 7.15229 11.9515 7.24592C11.5614 7.33948 11.2181 7.48564 10.9218 7.68433C10.6254 7.88309 10.3912 8.13623 10.2191 8.44382C10.047 8.75141 9.96094 9.11917 9.96094 9.54716C9.96094 10.0936 10.1187 10.5597 10.4342 10.9457C10.7497 11.3316 11.2286 11.6583 11.8711 11.9258C12.1083 12.0224 12.3435 12.1236 12.5767 12.2296C12.7947 12.3289 12.983 12.432 13.1417 12.539C13.3004 12.646 13.4257 12.7626 13.5175 12.8887C13.6092 13.0148 13.6551 13.1581 13.6551 13.3186C13.6559 13.4341 13.6262 13.5478 13.5691 13.6481C13.5117 13.7493 13.4247 13.8373 13.3081 13.9118C13.1915 13.9863 13.0461 14.0445 12.8721 14.0866C12.6981 14.1286 12.4945 14.1496 12.2612 14.1496C11.8635 14.1496 11.4696 14.0799 11.0796 13.9404C10.6894 13.8009 10.328 13.5918 9.99534 13.3128ZM6.93826 8.74849H9.29688V7.23828H2.72266V8.74849H5.06979V15.4727H6.93826V8.74849Z" fill="white"/>
</g>
<defs>
<clipPath id="clip0_104_48">
<rect width="17" height="17" fill="white"/>
</clipPath>
</defs>
</symbol>

<!-- Nodejs -->
<symbol id="icon-node" width="17" height="17" viewBox="0 0 17 17" fill="none" xmlns="http://www.w3.org/2000/svg">
<path d="M8.49689 1.59375C8.30298 1.59375 8.10912 1.64131 7.94177 1.73694L2.677 4.77606C2.337 4.97262 2.125 5.34479 2.125 5.73792V11.2517C2.125 11.6501 2.337 12.017 2.677 12.2136L4.05908 13.0104C4.72846 13.3398 4.96715 13.3394 5.26996 13.3394C6.2634 13.3394 6.83154 12.7391 6.83154 11.6979V6.00873C6.83154 5.92373 6.76298 5.85413 6.67798 5.85413H6.01392C5.9236 5.85413 5.85931 5.92373 5.85931 6.00873V11.6927C5.85931 12.1602 5.37646 12.6169 4.59552 12.2291L3.15015 11.3949C3.09702 11.3683 3.06506 11.3101 3.06506 11.2517V5.7431C3.06506 5.67935 3.09702 5.62556 3.15015 5.59369L8.41492 2.5556C8.46273 2.52373 8.52677 2.52373 8.5799 2.5556L13.8447 5.59369C13.8978 5.62556 13.9297 5.67948 13.9297 5.73792V11.2517C13.9297 11.3101 13.8977 11.3683 13.8499 11.3949L8.5799 14.4392C8.53208 14.4658 8.46273 14.4658 8.41492 14.4392L7.05981 13.6371C7.02263 13.6106 6.97042 13.6055 6.93323 13.6268C6.55604 13.8393 6.48698 13.8657 6.13635 13.9879C6.05135 14.0144 5.91846 14.0674 6.18408 14.2161L7.94177 15.2579C8.11177 15.3535 8.30356 15.4062 8.49481 15.4062C8.69137 15.4062 8.882 15.3535 9.052 15.2579L14.323 12.2136C14.663 12.017 14.875 11.6501 14.875 11.2517V5.7431C14.875 5.34467 14.663 4.97781 14.323 4.78125L9.052 1.73694C8.88466 1.64131 8.69079 1.59375 8.49689 1.59375ZM9.91321 5.84686C8.40977 5.84686 7.51221 6.48395 7.51221 7.54645C7.51221 8.69926 8.40388 9.01751 9.84888 9.16095C11.5754 9.33095 11.7083 9.5867 11.7083 9.9267C11.7083 10.5111 11.2362 10.7609 10.1259 10.7609C8.72873 10.7609 8.4204 10.4098 8.31946 9.71918C8.30883 9.6448 8.24546 9.59155 8.17108 9.59155H7.48523C7.40023 9.59155 7.33685 9.66128 7.33685 9.74097C7.33685 10.6282 7.82029 11.6844 10.1259 11.6844C11.794 11.6844 12.75 11.0265 12.75 9.87897C12.75 8.74209 11.9796 8.4387 10.3646 8.22089C8.723 8.00839 8.55811 7.89678 8.55811 7.51428C8.55811 7.19553 8.70196 6.77655 9.91321 6.77655C10.9916 6.77655 11.3952 7.00955 11.5599 7.73737C11.5758 7.80643 11.6339 7.8598 11.7083 7.8598H12.3941C12.4366 7.8598 12.4733 7.83876 12.5051 7.80688C12.5317 7.78032 12.5478 7.73745 12.5425 7.68964C12.4362 6.43589 11.6026 5.84686 9.91321 5.84686Z" fill="#1A1A1A"/>
</symbol>

<!-- React -->
<symbol id="icon-react" width="19" height="17" viewBox="0 0 19 17" fill="none" xmlns="http://www.w3.org/2000/svg">
<g clip-path="url(#clip0_86_84)">
<path d="M9.41309 6.67383C10.4125 6.67383 11.2227 7.484 11.2227 8.4834C11.2227 9.4828 10.4125 10.293 9.41309 10.293C8.41369 10.293 7.60352 9.4828 7.60352 8.4834C7.60352 7.484 8.41369 6.67383 9.41309 6.67383Z" fill="black"/>
</g>
<defs>
<clipPath id="clip0_86_84">
<rect width="18.8926" height="17" fill="white" transform="matrix(-1 0 0 1 18.8926 0)"/>
</clipPath>
</defs>
</symbol>

<!-- Astro -->
<symbol id="icon-astro" viewBox="0 0 24 24" xmlns="http://www.w3.org/2000/svg">
    <path d="M16.074 2.899c.247.308.374.723.626 1.554l5.649 18.092c-2.217-.747-4.626-1.343-7.174-1.793l-3.655-12.195c-.071-.23-.334-.23-.405 0l-3.601 12.195c-2.548.45-4.957 1.046-7.174 1.793L5.989 4.453c.252-.831.379-1.246.626-1.554.282-.352.613-.606.984-.736.41-.142.863-.142 1.77-.142h3.966c.907 0 1.36 0 1.77.142.37.13.702.384.984.736zM15.831 21.371c-.91.779-2.73 1.312-4.831 1.312-2.574 0-4.734-.802-5.307-1.88-.204.618-.25 1.325-.25 1.777 0 0-.135 2.219 1.407 3.762 0-.801.649-1.451 1.451-1.451 1.373 0 1.371 1.198 1.37 2.17v.087c0 1.475.901 2.739 2.184 3.273a2.973 2.973 0 01-.299-1.304c0-1.407.826-1.931 1.786-2.539.764-.484 1.613-1.023 2.197-2.103.477-.884.478-1.896.478-1.895 0-.422-.065-.828-.187-1.21z" fill="currentColor"/>
</symbol>

<!-- Tailwind -->
<symbol id="icon-tailwind" viewBox="0 0 28 17">
      <g clip-path="url(#clip0_114_162)">
      <mask id="mask0_114_162" style="mask-type:luminance" maskUnits="userSpaceOnUse" x="0" y="0" width="28" height="17">
      <path d="M0 0H28V16.6909H0V0Z" fill="white"/>
      </mask>
      <g mask="url(#mask0_114_162)">
      <path fill-rule="evenodd" clip-rule="evenodd" d="M14 0C10.2667 0 7.93333 1.85455 7 5.56364C8.4 3.70909 10.0333 3.01364 11.9 3.47727C12.965 3.74155 13.7262 4.50964 14.5688 5.35912C15.9413 6.74333 17.5301 8.34546 21 8.34546C24.7333 8.34546 27.0667 6.49091 28 2.78182C26.6 4.63636 24.9667 5.33182 23.1 4.86818C22.035 4.60391 21.2738 3.83582 20.4312 2.98633C19.0587 1.60212 17.4699 0 14 0ZM7 8.34546C3.26667 8.34546 0.933333 10.2 0 13.9091C1.4 12.0545 3.03333 11.3591 4.9 11.8227C5.96504 12.0875 6.72622 12.8551 7.56881 13.7046C8.94133 15.0888 10.5301 16.6909 14 16.6909C17.7333 16.6909 20.0667 14.8364 21 11.1273C19.6 12.9818 17.9667 13.6773 16.1 13.2136C15.035 12.9494 14.2738 12.1813 13.4312 11.3318C12.0587 9.94758 10.4699 8.34546 7 8.34546Z" fill="#1E1E1E"/>
      </g>
    </g>
    <defs>
    <clipPath id="clip0_114_162">
    <rect width="28" height="17" fill="white"/>
    </clipPath>
    </defs>
</symbol>

<!-- NextJs -->
<symbol id="icon-nextjs" width="17" height="17" viewBox="0 0 17 17" fill="none" xmlns="http://www.w3.org/2000/svg">
<g clip-path="url(#clip0_105_51)">
<mask id="mask0_105_51" style="mask-type:alpha" maskUnits="userSpaceOnUse" x="0" y="0" width="17" height="17">
<path d="M8.5 17C13.1944 17 17 13.1944 17 8.5C17 3.80558 13.1944 0 8.5 0C3.80558 0 0 3.80558 0 8.5C0 13.1944 3.80558 17 8.5 17Z" fill="black"/>
</mask>
<g mask="url(#mask0_105_51)">
<path d="M8.49999 16.7167C13.0379 16.7167 16.7167 13.0379 16.7167 8.49999C16.7167 3.96205 13.0379 0.283325 8.49999 0.283325C3.96205 0.283325 0.283325 3.96205 0.283325 8.49999C0.283325 13.0379 3.96205 16.7167 8.49999 16.7167Z" fill="black"/>
<path d="M14.1202 14.8769L6.53005 5.09998H5.09998V11.8971H6.24404V6.55287L13.2221 15.5687C13.537 15.358 13.8369 15.1267 14.1202 14.8769Z" fill="url(#paint0_linear_105_51)"/>
<path d="M11.9944 5.09998H10.8611V11.9H11.9944V5.09998Z" fill="url(#paint1_linear_105_51)"/>
</g>
</g>
<defs>
<linearGradient id="paint0_linear_105_51" x1="10.2944" y1="11.0028" x2="13.6472" y2="15.1583" gradientUnits="userSpaceOnUse">
<stop stop-color="white"/>
<stop offset="1" stop-color="white" stop-opacity="0"/>
</linearGradient>
<linearGradient id="paint1_linear_105_51" x1="11.4278" y1="5.09998" x2="11.4088" y2="10.0937" gradientUnits="userSpaceOnUse">
<stop stop-color="white"/>
<stop offset="1" stop-color="white" stop-opacity="0"/>
</linearGradient>
<clipPath id="clip0_105_51">
<rect width="17" height="17" fill="white"/>
</clipPath>
</defs>
</symbol>

<!-- Postgresql -->

<symbol id="icon-postgresql" xmlns="http://www.w3.org/2000/svg" xml:space="preserve" viewBox="0 0 432.071 445.383"><g style="fill-rule:nonzero;clip-rule:nonzero;fill:none;stroke:#fff;stroke-width:12.4651;stroke-linecap:round;stroke-linejoin:round;stroke-miterlimit:4"><path d="M323.205 324.227c2.833-23.601 1.984-27.062 19.563-23.239l4.463.392c13.517.615 31.199-2.174 41.587-7 22.362-10.376 35.622-27.7 13.572-23.148-50.297 10.376-53.755-6.655-53.755-6.655 53.111-78.803 75.313-178.836 56.149-203.322-52.27-66.789-142.748-35.206-144.262-34.386l-.482.089c-9.938-2.062-21.06-3.294-33.554-3.496-22.761-.374-40.032 5.967-53.133 15.904 0 0-161.408-66.498-153.899 83.628 1.597 31.936 45.777 241.655 98.47 178.31 19.259-23.163 37.871-42.748 37.871-42.748 9.242 6.14 20.307 9.272 31.912 8.147l.897-.765c-.281 2.876-.157 5.689.359 9.019-13.572 15.167-9.584 17.83-36.723 23.416-27.457 5.659-11.326 15.734-.797 18.367 12.768 3.193 42.305 7.716 62.268-20.224l-.795 3.188c5.325 4.26 4.965 30.619 5.72 49.452.756 18.834 2.017 36.409 5.856 46.771 3.839 10.36 8.369 37.05 44.036 29.406 29.809-6.388 52.6-15.582 54.677-101.107" style="fill:#000;stroke:#000;stroke-width:37.3953;stroke-linecap:butt;stroke-linejoin:miter"/><path stroke="none" d="M402.395 271.23c-50.302 10.376-53.76-6.655-53.76-6.655 53.111-78.808 75.313-178.843 56.153-203.326-52.27-66.785-142.752-35.2-144.262-34.38l-.486.087c-9.938-2.063-21.06-3.292-33.56-3.496-22.761-.373-40.026 5.967-53.127 15.902 0 0-161.411-66.495-153.904 83.63 1.597 31.938 45.776 241.657 98.471 178.312 19.26-23.163 37.869-42.748 37.869-42.748 9.243 6.14 20.308 9.272 31.908 8.147l.901-.765c-.28 2.876-.152 5.689.361 9.019-13.575 15.167-9.586 17.83-36.723 23.416-27.459 5.659-11.328 15.734-.796 18.367 12.768 3.193 42.307 7.716 62.266-20.224l-.796 3.188c5.319 4.26 9.054 27.711 8.428 48.969-.626 21.259-1.044 35.854 3.147 47.254 4.191 11.4 8.368 37.05 44.042 29.406 29.809-6.388 45.256-22.942 47.405-50.555 1.525-19.631 4.976-16.729 5.194-34.28l2.768-8.309c3.192-26.611.507-35.196 18.872-31.203l4.463.392c13.517.615 31.208-2.174 41.591-7 22.358-10.376 35.618-27.7 13.573-23.148z" style="fill:#336791;stroke:none"/><path d="M215.866 286.484c-1.385 49.516.348 99.377 5.193 111.495 4.848 12.118 15.223 35.688 50.9 28.045 29.806-6.39 40.651-18.756 45.357-46.051 3.466-20.082 10.148-75.854 11.005-87.281M173.104 38.256S11.583-27.76 19.092 122.365c1.597 31.938 45.779 241.664 98.473 178.316 19.256-23.166 36.671-41.335 36.671-41.335M260.349 26.207c-5.591 1.753 89.848-34.889 144.087 34.417 19.159 24.484-3.043 124.519-56.153 203.329"/><path d="M348.282 263.953s3.461 17.036 53.764 6.653c22.04-4.552 8.776 12.774-13.577 23.155-18.345 8.514-59.474 10.696-60.146-1.069-1.729-30.355 21.647-21.133 19.96-28.739-1.525-6.85-11.979-13.573-18.894-30.338-6.037-14.633-82.796-126.849 21.287-110.183 3.813-.789-27.146-99.002-124.553-100.599-97.385-1.597-94.19 119.762-94.19 119.762" style="stroke-linejoin:bevel"/><path d="M188.604 274.334c-13.577 15.166-9.584 17.829-36.723 23.417-27.459 5.66-11.326 15.733-.797 18.365 12.768 3.195 42.307 7.718 62.266-20.229 6.078-8.509-.036-22.086-8.385-25.547-4.034-1.671-9.428-3.765-16.361 3.994z"/><path d="M187.715 274.069c-1.368-8.917 2.93-19.528 7.536-31.942 6.922-18.626 22.893-37.255 10.117-96.339-9.523-44.029-73.396-9.163-73.436-3.193-.039 5.968 2.889 30.26-1.067 58.548-5.162 36.913 23.488 68.132 56.479 64.938"/><path d="M172.517 141.7c-.288 2.039 3.733 7.48 8.976 8.207 5.234.73 9.714-3.522 9.998-5.559.284-2.039-3.732-4.285-8.977-5.015-5.237-.731-9.719.333-9.996 2.367z" style="fill:#fff;stroke-width:4.155;stroke-linecap:butt;stroke-linejoin:miter"/><path d="M331.941 137.543c.284 2.039-3.732 7.48-8.976 8.207-5.238.73-9.718-3.522-10.005-5.559-.277-2.039 3.74-4.285 8.979-5.015 5.239-.73 9.718.333 10.002 2.368z" style="fill:#fff;stroke-width:2.0775;stroke-linecap:butt;stroke-linejoin:miter"/><path d="M350.676 123.432c.863 15.994-3.445 26.888-3.988 43.914-.804 24.748 11.799 53.074-7.191 81.435"/></g>
</symbol>

<!-- Git -->
<symbol id="icon-git" xmlns="http://www.w3.org/2000/svg" preserveAspectRatio="xMidYMid" viewBox="0 0 256 256">
  <path d="M251.17 116.6 139.4 4.82a16.49 16.49 0 0 0-23.31 0l-23.21 23.2 29.44 29.45a19.57 19.57 0 0 1 24.8 24.96l28.37 28.38a19.61 19.61 0 1 1-11.75 11.06L137.28 95.4v69.64a19.62 19.62 0 1 1-16.13-.57V94.2a19.61 19.61 0 0 1-10.65-25.73L81.46 39.44 4.83 116.08a16.49 16.49 0 0 0 0 23.32L116.6 251.17a16.49 16.49 0 0 0 23.32 0l111.25-111.25a16.5 16.5 0 0 0 0-23.33" fill="#DE4C36"/>
</symbol>

<!-- GitHub -->
<symbol id="icon-github" viewBox="0 0 24 24" xmlns="http://www.w3.org/2000/svg">
    <path fill-rule="evenodd" clip-rule="evenodd" d="M12 0C5.37 0 0 5.37 0 12c0 5.31 3.435 9.795 8.205 11.385.6.105.825-.255.825-.57 0-.285-.015-1.23-.015-2.235-3.015.555-3.795-.735-4.035-1.41-.135-.345-.72-1.41-1.23-1.695-.42-.225-1.02-.78-.015-.795.945-.015 1.62.87 1.845 1.23 1.08 1.815 2.805 1.305 3.495.99.105-.78.42-1.305.765-1.605-2.67-.3-5.46-1.335-5.46-5.925 0-1.305.465-2.385 1.23-3.225-.12-.3-.54-1.53.12-3.18 0 0 1.005-.315 3.3 1.23.96-.27 1.98-.405 3-.405s2.04.135 3 .405c2.295-1.56 3.3-1.23 3.3-1.23.66 1.65.24 2.88.12 3.18.765.84 1.23 1.905 1.23 3.225 0 4.605-2.805 5.625-5.475 5.925.435.375.81 1.095.81 2.22 0 1.605-.015 2.895-.015 3.3 0 .315.225.69.825.57A12.02 12.02 0 0024 12c0-6.63-5.37-12-12-12z" fill="currentColor"/>
</symbol>

</svg>
